<svg width="112" height="20" viewBox="0 0 112 20" fill="none" xmlns="http://www.w3.org/2000/svg"><g clip-path="url(#a)" fill="#05060B"><path d="M84.96 19.669V.464h4.712V19.67zM107.206.464h4.611V19.67h-3.821l-9.628-12.1.077 12.099h-4.636V.464h3.923l9.628 12.022zM34.515 19.669V4.819h-4.202V.464h13.118V4.82h-4.203v14.85h-4.712zM.082 10.144C.082 4.182 4.642.106 10.398.106c3.464 0 6.596 1.4 8.608 4.407l-4.151 2.164c-1.121-1.528-2.573-2.343-4.407-2.343-3.235 0-5.502 2.522-5.502 5.833s2.471 5.782 5.35 5.782c2.368 0 4.075-1.426 4.38-3.31v-.027h-4.024V8.997h9.297v.814c0 6.266-3.745 10.19-9.704 10.19C4.615 20 .082 15.95.082 10.142m23.099 9.527V.464h4.712V19.67zm31.665-4.024c-2.928 0-5.4-2.293-5.4-5.578 0-3.107 2.37-5.578 5.452-5.578 1.518 0 2.843.574 3.807 1.525A13.1 13.1 0 0 1 60.856 1.9C59.171.773 57.121.133 54.923.133c-5.655 0-10.342 4.228-10.342 9.908 0 5.96 4.712 9.959 10.265 9.959 2.218 0 4.283-.62 5.977-1.724a13.1 13.1 0 0 1-2.126-4.142c-.979.947-2.323 1.511-3.85 1.511M71.736.133c-3.549 0-6.716 1.666-8.583 4.31a9.63 9.63 0 0 0-1.759 5.598c0 2.115.649 4.151 1.748 5.718C65.006 18.418 68.167 20 71.66 20c5.68 0 10.368-4.074 10.368-9.907S77.365.133 71.736.133m-.077 15.512c-2.928 0-5.399-2.293-5.399-5.578 0-3.107 2.369-5.578 5.451-5.578s5.451 2.445 5.451 5.604-2.369 5.552-5.502 5.552"/></g><defs><clipPath id="a"><path fill="#fff" d="M0 0h112v20H0z"/></clipPath></defs></svg>