<svg width="25" height="24" viewBox="0 0 25 24" fill="none" xmlns="http://www.w3.org/2000/svg"><path d="M6.66 3.733h11.627v16.534H16.58v-7.574h-.017a4.107 4.107 0 0 0-8.18 0h-.016v7.574H6.66z" fill="#404454"/><path d="m3.566 6.08.694 2.347h.586v9.493a.533.533 0 0 0-.533.533v.64h-.107a.533.533 0 0 0-.533.534v.64h5.973v-.64a.533.533 0 0 0-.533-.534h-.107v-.64a.533.533 0 0 0-.533-.533h-.64V6.08zm13.119 11.84a.533.533 0 0 0-.533.533v.64h-.107a.533.533 0 0 0-.533.534v.64h5.973v-.64a.533.533 0 0 0-.533-.534h-.107v-.64a.533.533 0 0 0-.533-.533V8.427h.586l.694-2.347h-4.267v11.84z" fill="#404454"/></svg>