<svg width="48" height="48" viewBox="0 0 48 48" fill="none" xmlns="http://www.w3.org/2000/svg"><g clip-path="url(#a)"><circle cx="24" cy="24" r="24" fill="red"/><path fill-rule="evenodd" clip-rule="evenodd" d="M13.1 17c.495 0 .92.347 1.02.831l.55 2.686 2.698.55a1.04 1.04 0 0 1 0 2.038l-2.697.55-.551 2.686a1.04 1.04 0 0 1-2.039 0l-.55-2.686-2.698-.55a1.04 1.04 0 0 1 0-2.038l2.698-.55.55-2.686a1.04 1.04 0 0 1 1.02-.831m21.649 0c.494 0 .92.347 1.02.831l.55 2.686 2.698.55a1.04 1.04 0 0 1 0 2.038l-2.698.55-.55 2.686a1.04 1.04 0 0 1-2.039 0l-.55-2.686-2.699-.55a1.04 1.04 0 0 1 0-2.038l2.698-.55.551-2.686a1.04 1.04 0 0 1 1.02-.831M18.484 28.028a1.444 1.444 0 0 1 2.888 0c0 1.15.934 2.085 2.09 2.085s2.09-.935 2.09-2.085a1.444 1.444 0 0 1 2.888 0A4.975 4.975 0 0 1 23.462 33a4.975 4.975 0 0 1-4.978-4.972" fill="#fff"/></g><defs><clipPath id="a"><rect width="48" height="48" rx="24" fill="#fff"/></clipPath></defs></svg>