<svg width="179" height="40" viewBox="0 0 179 40" fill="none" xmlns="http://www.w3.org/2000/svg"><g clip-path="url(#a)"><circle cx="20" cy="20" r="20" fill="#FF0420"/><path d="M14.17 25.316q-1.785 0-2.927-.84-1.125-.857-1.125-2.433 0-.33.075-.81.195-1.081.555-2.597 1.02-4.128 5.269-4.128 1.155 0 2.072.39.915.375 1.44 1.14.526.752.526 1.802 0 .316-.075.796-.225 1.335-.54 2.597-.525 2.055-1.817 3.077-1.29 1.005-3.452 1.006m.21-2.162q.842 0 1.427-.495.6-.495.856-1.516.345-1.412.525-2.462.06-.315.06-.646 0-1.365-1.426-1.366-.84 0-1.441.496-.585.495-.84 1.516-.27 1.004-.541 2.462-.06.3-.06.63 0 1.38 1.44 1.381m6.363 2.012a.32.32 0 0 1-.255-.105.36.36 0 0 1-.045-.27l2.072-9.758a.43.43 0 0 1 .165-.27.46.46 0 0 1 .285-.105h3.993q1.665 0 2.672.69 1.02.69 1.02 1.997 0 .375-.09.78-.375 1.727-1.516 2.552-1.125.826-3.092.826h-2.026l-.691 3.287a.43.43 0 0 1-.165.27.46.46 0 0 1-.285.106zm5.314-5.735q.63 0 1.096-.345.48-.345.63-.99.045-.255.045-.45 0-.436-.255-.661-.255-.24-.87-.24h-1.802l-.57 2.686z" fill="#FBFCFE"/></g><path d="M175.12 29.512V10.745h3.573v18.767zm-1.749-16.093v-2.674h5.322v2.674zM165.23 30q-1.85 0-3.265-.591-1.414-.591-2.391-1.594a7.3 7.3 0 0 1-1.491-2.314 7.5 7.5 0 0 1-.488-2.673v-.54q0-1.44.514-2.725a7.2 7.2 0 0 1 1.517-2.314 6.9 6.9 0 0 1 2.416-1.593q1.414-.592 3.188-.592 1.773 0 3.187.591 1.415.567 2.391 1.594a6.7 6.7 0 0 1 1.517 2.314q.514 1.285.514 2.725v.54a7.1 7.1 0 0 1-.514 2.673 6.9 6.9 0 0 1-1.465 2.314q-.978 1.002-2.391 1.594-1.414.591-3.239.591m0-3.06q1.311 0 2.211-.565a3.8 3.8 0 0 0 1.362-1.568q.463-1.002.463-2.262 0-1.285-.489-2.262a3.5 3.5 0 0 0-1.388-1.568q-.9-.592-2.159-.592-1.26 0-2.185.592-.9.566-1.388 1.568-.489.976-.489 2.262 0 1.26.463 2.262a3.96 3.96 0 0 0 1.388 1.568q.9.566 2.211.566M148.811 30q-1.852 0-3.265-.591-1.415-.591-2.391-1.594a7.3 7.3 0 0 1-1.491-2.314 7.5 7.5 0 0 1-.488-2.673v-.54q0-1.44.514-2.725a7.2 7.2 0 0 1 1.516-2.314 6.9 6.9 0 0 1 2.417-1.593q1.413-.592 3.188-.592 1.773 0 3.187.591 1.415.567 2.391 1.594a6.7 6.7 0 0 1 1.517 2.314q.514 1.285.514 2.725v.54q0 1.387-.514 2.673a6.9 6.9 0 0 1-1.466 2.314q-.977 1.002-2.39 1.594-1.415.591-3.239.591m0-3.06q1.31 0 2.21-.565a3.8 3.8 0 0 0 1.363-1.568q.462-1.002.463-2.262 0-1.285-.489-2.262a3.5 3.5 0 0 0-1.388-1.568q-.9-.592-2.159-.592-1.26 0-2.186.592a3.75 3.75 0 0 0-1.388 1.568q-.488.976-.488 2.262 0 1.26.463 2.262a3.96 3.96 0 0 0 1.388 1.568q.9.566 2.211.566m-15.655 2.571V13.445h3.65v16.067zm-5.424-15.553v-3.214h14.498v3.214zM100.55 29.511V15.553h2.828v5.99h-.257q0-2.109.54-3.523.54-1.44 1.594-2.159 1.08-.745 2.673-.745h.154q1.62 0 2.674.745 1.08.72 1.594 2.16.54 1.413.54 3.521h-.9q0-2.108.54-3.522.565-1.44 1.619-2.159 1.08-.745 2.674-.745h.154q1.62 0 2.699.745 1.08.72 1.62 2.16.565 1.413.565 3.521v7.97h-3.573v-8.304q0-1.311-.668-2.082-.669-.797-1.903-.797t-1.979.822q-.746.798-.746 2.16v8.2h-3.573v-8.303q0-1.311-.668-2.082-.669-.797-1.903-.797t-1.979.822q-.746.798-.746 2.16v8.2zm-6.663.001v-13.96h3.573v13.96zm-1.954-11.286v-2.673h5.527v2.673zm3.265-4.344q-1.054 0-1.568-.54-.489-.566-.489-1.388 0-.874.489-1.414.514-.54 1.568-.54t1.543.54.488 1.414q0 .821-.489 1.388-.488.54-1.542.54m-7.606 15.63v-4.14H87v-4.6q0-1.209-.59-1.8-.592-.591-1.826-.591-.642 0-1.543.025t-1.825.077q-.9.025-1.62.078v-3.034a76 76 0 0 1 1.338-.103 22 22 0 0 1 1.516-.051 47 47 0 0 1 1.491-.026q2.16 0 3.573.566 1.44.565 2.16 1.773.745 1.209.745 3.162v8.664zm-4.499.36q-1.516 0-2.674-.54a4.2 4.2 0 0 1-1.773-1.543q-.618-1.003-.617-2.416 0-1.543.745-2.52.771-.976 2.134-1.465 1.388-.488 3.239-.488h3.239v2.134h-3.29q-1.234 0-1.903.616-.642.592-.642 1.543t.642 1.542q.669.592 1.903.591a3.5 3.5 0 0 0 1.362-.256q.643-.283 1.054-.926.437-.668.488-1.8l.874 1.003q-.127 1.466-.72 2.468a3.84 3.84 0 0 1-1.593 1.542q-1.003.515-2.468.515m-10.583-.36V10.745h3.573v18.767zm-1.748-16.093v-2.674h5.321v2.674zM61.563 30q-2.545 0-4.37-.9t-2.982-2.339a9.9 9.9 0 0 1-1.671-3.136Q52 21.928 52 20.36v-.566q0-1.747.54-3.444a9.5 9.5 0 0 1 1.722-3.085q1.157-1.389 2.93-2.211 1.8-.849 4.242-.848 2.546 0 4.422.925 1.903.9 3.034 2.57 1.131 1.647 1.362 3.857h-3.676q-.206-1.286-.926-2.16a4.2 4.2 0 0 0-1.773-1.336q-1.08-.463-2.443-.463-1.388 0-2.467.488a4.7 4.7 0 0 0-1.8 1.337 6.2 6.2 0 0 0-1.105 2.057q-.36 1.182-.36 2.622 0 1.388.36 2.57a6.3 6.3 0 0 0 1.13 2.083 5.16 5.16 0 0 0 1.826 1.362q1.105.489 2.545.489 2.108 0 3.547-1.029 1.466-1.054 1.774-2.93h3.676a8.54 8.54 0 0 1-1.362 3.676q-1.106 1.671-3.033 2.673Q64.236 30 61.563 30" fill="#404454"/><defs><clipPath id="a"><path fill="#fff" d="M0 0h40v40H0z"/></clipPath></defs></svg>