<svg width="1920" height="993" viewBox="0 0 1920 993" fill="none" xmlns="http://www.w3.org/2000/svg"><g clip-path="url(#a)"><path d="M1213.93 56.23c.56-1.3 2.26-1.62 3.26-.612l125.86 127.224a2 2 0 0 0 2.44.315l154.03-91.116a2.005 2.005 0 0 1 3 1.42l27.04 176.907c.14.907.88 1.603 1.79 1.689l178.17 16.824a2 2 0 0 1 1.59 2.909l-82.1 159.018a2.01 2.01 0 0 0 .45 2.418l134.26 118.337a2 2 0 0 1-.43 3.287l-159.89 80.389a2 2 0 0 0-1.05 2.224l39.06 174.649c.31 1.382-.88 2.639-2.28 2.41l-176.61-28.946a1.99 1.99 0 0 0-2.15 1.18l-71.06 164.251a2.003 2.003 0 0 1-3.26.613l-125.86-127.225a2 2 0 0 0-2.44-.315l-154.04 91.116a1.995 1.995 0 0 1-2.99-1.419l-27.05-176.908a1.995 1.995 0 0 0-1.79-1.689l-178.166-16.824a2 2 0 0 1-1.59-2.908l82.104-159.019a2 2 0 0 0-.455-2.418L839.519 455.675a2 2 0 0 1 .424-3.288l159.892-80.389a2.006 2.006 0 0 0 1.055-2.223l-39.059-174.649a2 2 0 0 1 2.275-2.411l176.604 28.946c.91.149 1.8-.338 2.16-1.179z" fill="url(#b)" fill-opacity=".4"/><path d="M197.966 352.278a2 2 0 0 1 1.691-2.851l121.774-7.154a2 2 0 0 0 1.848-1.624l22.698-119.854a2 2 0 0 1 3.044-1.312l102.723 65.789a2 2 0 0 0 2.449-.228l88.812-83.622a2 2 0 0 1 3.233.728l44.435 113.603a2 2 0 0 0 2.116 1.256l121.001-15.45a2 2 0 0 1 2.189 2.49l-30.826 118.024a2 2 0 0 0 .973 2.26L793.1 482.957a2 2 0 0 1 .307 3.3l-94.312 77.365a2 2 0 0 0-.54 2.4l52.085 110.306a2 2 0 0 1-1.692 2.85l-121.774 7.154a2 2 0 0 0-1.848 1.625L602.628 807.81a2 2 0 0 1-3.044 1.312l-102.722-65.789a2 2 0 0 0-2.45.228l-88.811 83.622a2 2 0 0 1-3.234-.727l-44.434-113.604a2 2 0 0 0-2.116-1.255l-121.002 15.449a2 2 0 0 1-2.188-2.489l30.826-118.025a2 2 0 0 0-.974-2.259l-106.973-58.624a2 2 0 0 1-.308-3.301l94.313-77.365a2 2 0 0 0 .54-2.4z" fill="url(#c)" fill-opacity=".4"/><path d="M572.332 548.072c-1.355-.893-1.139-2.943.373-3.534l106.424-41.541a2 2 0 0 0 1.232-2.267l-23.037-111.897c-.327-1.59 1.276-2.887 2.762-2.235l104.628 45.879a2 2 0 0 0 2.473-.732l62.835-95.413c.893-1.355 2.943-1.139 3.533.373l41.542 106.424a2 2 0 0 0 2.266 1.232l111.898-23.037c1.59-.327 2.887 1.276 2.235 2.762l-45.879 104.628a2 2 0 0 0 .732 2.473l95.411 62.835c1.36.893 1.14 2.943-.37 3.533l-106.425 41.542a2 2 0 0 0-1.232 2.266l23.036 111.898c.328 1.59-1.275 2.887-2.762 2.235L849.38 709.617a2 2 0 0 0-2.474.732l-62.834 95.413c-.893 1.355-2.943 1.139-3.534-.373l-41.541-106.424a2 2 0 0 0-2.266-1.232l-111.898 23.036c-1.59.328-2.887-1.275-2.235-2.762l45.879-104.627a2 2 0 0 0-.732-2.474z" fill="url(#d)" fill-opacity=".4"/><path d="m1605.53 595.157 10.91 62.29 56.16 29.086-62.29 10.91-29.09 56.152-10.91-62.29-56.15-29.086 62.29-10.91zM347.133 716.632l27.361 40.007 48.404 2.494-40.007 27.361-2.493 48.404-27.361-40.007-48.405-2.493 40.007-27.361zm-165.312-31.64 1.838 32.555 27.005 18.274-32.554 1.838-18.274 27.005-1.838-32.555-27.005-18.273 32.554-1.839z" fill="#FBFCFE"/></g><defs><linearGradient id="b" x1="1215.11" y1="53.513" x2="1388.13" y2="973.724" gradientUnits="userSpaceOnUse"><stop stop-color="#D7FEF9"/><stop offset="1" stop-color="#FBD9D4"/></linearGradient><linearGradient id="c" x1="196.702" y1="349.601" x2="751.904" y2="679.005" gradientUnits="userSpaceOnUse"><stop stop-color="#FFF8DF"/><stop offset="1" stop-color="#FBD9D4"/></linearGradient><linearGradient id="d" x1="829.09" y1="340.531" x2="951.127" y2="750.623" gradientUnits="userSpaceOnUse"><stop stop-color="#DFF1FF"/><stop offset="1" stop-color="#D4FBDD"/></linearGradient><clipPath id="a"><path fill="#fff" d="M0 0h1920v993H0z"/></clipPath></defs></svg>