<svg width="76" height="20" viewBox="0 0 76 20" fill="none" xmlns="http://www.w3.org/2000/svg"><path d="M.876.41c.638.193 1.277.393 1.915.587.438.134.876.26 1.307.416.148.052.304.141.415.253C6.28 3.427 8.04 5.189 9.806 6.958c.2.2.2.2.401 0l1.455-1.457c1.329-1.315 2.65-2.639 3.979-3.947.097-.096.252-.156.386-.2q1.439-.456 2.888-.9c.081-.022.163-.037.29-.067-.09.298-.171.558-.253.818-.253.818-.505 1.628-.772 2.445a1 1 0 0 1-.23.372 3606 3606 0 0 1-5.353 5.367c-.193.193-.193.193 0 .386l2.547 2.55c.178.178.23.171.326-.052.32-.714.535-1.45.535-2.237 0-.171.06-.246.237-.246.305.008.609 0 .906 0 .104 0 .193.023.178.149-.044.431-.067.862-.148 1.286a6.74 6.74 0 0 1-1.24 2.773c-.119.156-.104.252.03.386 1.284 1.271 2.56 2.557 3.837 3.836.2.2.194.215-.014.401q-.39.366-.758.766c-.178.193-.193.2-.378.022l-3.83-3.836c-.201-.2-.201-.2-.438-.03a7.1 7.1 0 0 1-3.215 1.264c-.23.03-.468.03-.705.045-.156.015-.23-.045-.223-.208q.012-.435 0-.87c0-.156.06-.215.223-.223.78-.007 1.514-.2 2.22-.528.066-.03.126-.074.207-.119-.059-.074-.104-.133-.155-.185a844 844 0 0 1-2.584-2.595c-.126-.126-.193-.111-.312.008-.853.862-1.714 1.717-2.568 2.58-.178.178-.17.192.052.304.72.35 1.492.513 2.286.572.156.008.223.075.216.23a16 16 0 0 0 0 .856c.007.178-.082.23-.238.223-1.462-.075-2.799-.506-3.986-1.383-.223-.164-.223-.164-.409.022L1.388 19.35c-.208.209-.2.201-.416 0a2 2 0 0 0-.126-.111c-.111-.112-.72-.617-.846-.818l.876-.877c1.084-1.078 2.16-2.163 3.244-3.24.096-.09.089-.172.007-.276-.49-.617-.824-1.323-1.061-2.066a7 7 0 0 1-.327-1.896c-.007-.178.06-.238.238-.238.274.008.557.008.831 0 .163-.007.23.045.238.216q.047 1.149.527 2.185c.104.223.126.23.304.052.839-.832 1.67-1.672 2.51-2.512.2-.2.2-.2.007-.401C5.612 7.583 3.83 5.806 2.056 4.022a.7.7 0 0 1-.185-.268c-.216-.654-.409-1.308-.616-1.962A76 76 0 0 1 .86.536C.876.484.876.446.876.41m1.247 1.73c-.015.008-.03.023-.044.03.14.439.274.885.423 1.323.03.09.111.164.178.23q1.605 1.584 3.2 3.167c2.456 2.453 4.906 4.914 7.363 7.367.312.312.32.312.646.007.186-.178.186-.178.008-.357-3.876-3.872-7.75-7.753-11.625-11.633-.045-.052-.097-.089-.149-.134m.505-.505c-.015.022-.037.045-.052.067.067.044.141.082.193.141 3.83 3.828 7.653 7.656 11.476 11.492.372.372.283.327.617-.052.11-.127.11-.23-.023-.357L4.105 2.18c-.052-.052-.111-.112-.178-.134q-.643-.21-1.3-.409m14.817.022c-.015-.015-.022-.03-.037-.052-.379.12-.765.238-1.143.364a.9.9 0 0 0-.312.186c-1.722 1.71-3.437 3.42-5.16 5.13-.333.334-.333.334.008.676.17.17.186.17.356 0L17.311 1.8c.052-.045.097-.097.134-.142m.52.513c-.015-.015-.03-.022-.038-.037-.059.052-.11.104-.17.156-1.277 1.279-2.554 2.565-3.83 3.836q-1.158 1.147-2.324 2.297c-.127.118-.149.208-.008.327q.111.091.2.193c.12.141.209.119.335 0l5.3-5.307a.7.7 0 0 0 .148-.209c.127-.423.253-.84.387-1.256m-8.433 9.336c-.045-.06-.082-.119-.127-.163-.356-.35-.297-.424-.705-.008l-2.383 2.387c-.378.378-.37.371.067.69.126.09.208.075.304-.029l2.74-2.743c.03-.037.059-.082.104-.134m-.98-.973c-.03-.045-.052-.082-.082-.112l-.223-.223c-.17-.17-.178-.17-.356.008l-2.51 2.512c-.348.35-.348.416.008.766.097.096.171.089.268 0l2.783-2.788c.045-.052.075-.111.112-.163m30.079-5.798c-.668 1.813-1.485 3.53-2.91 4.928.067.03.112.06.149.067.408.096.816.185 1.224.282.26.067.52.112.706-.149.037-.052.044-.118.089-.163.052-.045.133-.097.193-.09.044.008.089.097.126.157.007.015 0 .037.007.052.023.832.052 1.672.075 2.505v.126c-.008.104.022.23-.127.245-.14.023-.185-.081-.244-.185-.171-.305-.32-.617-.535-.885-.475-.602-1.069-1.048-1.826-1.241-.43-.112-.839-.067-1.27.06a1.76 1.76 0 0 0-.92.609c-.43.527-.668 1.144-.78 1.806a7.9 7.9 0 0 0 .364 4.17c.253.699.631 1.316 1.225 1.784.505.394 1.27.595 1.9.275.127-.067.186-.141.186-.29-.007-.921 0-1.843-.007-2.765 0-.334-.193-.572-.453-.721-.223-.126-.475-.186-.728-.268-.111-.037-.23-.044-.222-.193 0-.163.118-.186.245-.178.623.022 1.247.06 1.87.06.631 0 1.262-.03 1.893-.045.164-.008.334-.023.498-.008.059.008.155.09.155.134a.26.26 0 0 1-.11.193c-.083.052-.194.052-.283.09-.349.17-.527.46-.52.854.008.721.015 1.45.038 2.17.007.283-.112.484-.32.655-.742.587-1.603.892-2.509 1.1-.735.164-1.507.149-2.234.045-1.3-.171-2.324-.863-3.007-2.015-.445-.75-.66-1.568-.735-2.43-.096-1.093.03-2.149.52-3.145a4.65 4.65 0 0 1 1.685-1.888c.082-.052.163-.104.267-.178-.051-.037-.089-.075-.126-.097-.987-.49-1.752-1.234-2.39-2.126a16 16 0 0 1-.876-1.353c-.26-.446-.178-.75.23-1.07.23-.178.475-.334.698-.52.267-.223.542-.439.765-.699.6-.706.504-1.821-.194-2.43-.319-.276-.683-.328-1.076-.157-.601.275-1.024.744-1.373 1.286-.074.112-.134.238-.2.357-.186.297-.216.617-.209.959.008 1.464.008 2.936 0 4.4 0 .305.067.573.357.721.148.075.326.112.49.156.104.023.2.053.185.186-.014.134-.111.171-.222.164-.527-.015-1.047-.037-1.574-.037-.846 0-1.693.022-2.539.03-.082 0-.208-.045-.237-.105-.052-.096-.008-.2.133-.23.186-.045.379-.082.55-.149.319-.126.49-.357.49-.713v-6.78c0-.587-.439-1.114-1.01-1.248-.06-.015-.134-.015-.178-.052-.052-.052-.104-.134-.097-.194 0-.052.09-.096.141-.133.023-.015.06-.008.09-.008.727.015 1.454.023 2.19.037.289.008.556.09.786.275.282.238.4.543.408.9.008.282 0 .565 0 .847q.023.014.045.015c.03-.037.067-.074.096-.111.357-.439.69-.907 1.084-1.316.453-.476.988-.847 1.648-.989.81-.17 1.589-.096 2.272.424.668.513.868 1.568.475 2.423-.282.625-.72 1.1-1.277 1.487-.215.149-.43.297-.638.453-.312.23-.372.52-.193.863.378.75.846 1.427 1.432 2.021.386.387.802.744 1.344.907.675.201 1.292.075 1.848-.364.661-.528 1.143-1.204 1.507-1.955.379-.766.706-1.553 1.047-2.341.037-.082.015-.209-.022-.29q-.58-1.069-1.18-2.126c-.297-.52-.773-.78-1.337-.914-.067-.015-.14-.03-.178-.075a.23.23 0 0 1-.044-.178c.007-.045.081-.082.133-.112.045-.015.097-.007.149-.007.809 0 1.618.007 2.427 0 .55 0 .98.23 1.262.684.282.446.52.914.765 1.382q1.167 2.22 2.323 4.438.511.97 1.01 1.94c.267.52.69.825 1.254.944.119.022.23.045.215.193-.014.142-.133.149-.237.149-.082 0-.163.007-.238 0-.118-.007-.193.022-.245.149-.03.067-.118.119-.185.148-.126.052-.26.067-.394.112-.326.111-.497.334-.497.684 0 1.367-.03 2.735.008 4.103.022.832.17 1.65.675 2.356.497.699 1.18.981 2.027.9 1.15-.12 1.781-.826 2.115-1.881.164-.528.208-1.07.215-1.613.015-1.123-.014-2.245.015-3.36.015-.632-.393-1.026-.883-1.204-.074-.03-.156-.045-.23-.067-.156-.037-.327-.052-.304-.29 0-.022-.12-.074-.179-.074-.393.007-.787.022-1.187.03-.052 0-.127.014-.164-.008-.066-.037-.14-.097-.156-.163-.007-.045.075-.134.134-.164.096-.045.2-.052.304-.074a.8.8 0 0 0 .661-.818V1.621c0-.446-.163-.669-.594-.795-.119-.038-.252-.038-.356-.082-.067-.03-.141-.12-.149-.193-.007-.052.09-.142.149-.164.096-.022.208 0 .312 0 .349.015.705.03 1.054.037q.813.012 1.626 0c.386-.007.779-.037 1.165-.052.022 0 .052-.007.074 0 .119.022.29 0 .297.186.008.178-.148.178-.274.216-.194.06-.394.119-.572.208-.17.089-.253.26-.253.46v7.523c0 .305.216.543.572.64.104.029.223.044.327.081.06.022.14.067.163.126.044.127.126.134.238.112.126-.022.267-.022.29.141.021.164-.083.223-.231.253-.653.126-1.025.58-1.025 1.241 0 1.257.015 2.513-.007 3.769-.015.959-.185 1.895-.646 2.758-.467.862-1.158 1.457-2.115 1.702-.268.067-.55.089-.824.104-.35.015-.69.015-1.04 0-1.366-.06-2.383-.706-3.036-1.903-.468-.847-.63-1.784-.646-2.743-.022-1.405-.03-2.81-.037-4.215 0-.26-.111-.446-.341-.55-.186-.081-.386-.118-.58-.185-.059-.015-.125-.038-.155-.075-.104-.126.052-.528.208-.565.178-.044.363-.067.542-.126a1 1 0 0 0 .304-.171c.223-.171.26-.32.134-.565-.446-.892-.906-1.776-1.359-2.661-.223-.439-.438-.877-.66-1.308-.023-.045-.053-.097-.075-.142-.052.06-.074.053-.089.053M54.71 1.718c.022-.045.037-.09.067-.134a3.65 3.65 0 0 1 2.242-1.42c1.536-.312 2.85.23 3.734 1.628.512.81.705 1.717.742 2.669a6.2 6.2 0 0 1-.579 2.884 4.75 4.75 0 0 1-1.306 1.687c-.49.401-1.01.743-1.634.907 0 .015.008.037.008.052.133.015.274.037.408.037.935-.007 1.863-.03 2.799-.037.133 0 .319-.052.334.163.007.194-.163.186-.305.216-.571.119-.801.335-.794.885.008 2.438 0 4.883 0 7.321 0 .283.008.305.29.29.668-.03 1.343.008 1.99-.126 1.031-.208 1.67-.907 1.944-1.925.022-.075.022-.157.067-.209.037-.059.133-.133.178-.119.067.023.126.105.156.172s.015.148.007.223c-.022.46-.022.929-.081 1.39-.097.795-.453 1.211-1.337 1.3-1.061.104-2.123.09-3.184.06-1.054-.037-2.101-.015-3.155-.015h-.238c-.118-.008-.23-.03-.237-.178 0-.142.089-.201.222-.224.179-.037.364-.081.535-.148.275-.112.4-.327.393-.632a277 277 0 0 1 0-3.508c.008-.87.03-1.732.03-2.602 0-.424-.022-.84-.037-1.264-.007-.23-.111-.416-.32-.513-.177-.081-.37-.119-.556-.185-.074-.03-.141-.082-.208-.127-.074-.044-.14-.119-.215-.126a9 9 0 0 0-.794 0c-.06 0-.156.022-.178.067-.082.156-.223.17-.372.2a1.7 1.7 0 0 0-.482.186c-.2.12-.29.305-.29.543v7.359c0 .409.312.736.743.78.052.008.11-.015.148.015.067.06.126.134.186.2-.067.053-.127.15-.193.15-.29.014-.58 0-.869 0h-2.502c-.297 0-.593.007-.89.007-.112 0-.2-.037-.208-.164 0-.126.081-.178.2-.208.164-.037.327-.06.483-.119.282-.119.43-.334.43-.654v-7.374c0-.32-.178-.505-.445-.624a2 2 0 0 0-.468-.111c-.133-.023-.2-.075-.208-.209-.022-.334.008-.379.327-.453.074-.015.149-.03.215-.052.43-.164.69-.312.69-.907a330 330 0 0 1 0-6.63c.008-.558-.408-1.16-1.024-1.271-.119-.023-.26-.038-.237-.216.022-.186.163-.171.29-.178h2.13c.104 0 .208.014.312.03.504.074.89.356.935 1.018.007.06.037.126.052.186.015.014.037.03.06.037m-.089 4.23v2.824c0 .327.111.468.423.535a4 4 0 0 0 1.782-.022c.735-.171 1.314-.573 1.692-1.227.35-.594.505-1.249.55-1.932a5.8 5.8 0 0 0-.438-2.669c-.275-.647-.631-1.234-1.247-1.62-.528-.335-1.084-.402-1.641-.134-.698.327-1.128.855-1.12 1.68.007.855 0 1.71 0 2.564m14.347 5.345c.2-.216.364-.402.542-.58a3.56 3.56 0 0 1 2.146-1.04c1.529-.172 2.702.43 3.489 1.753.423.714.608 1.502.668 2.334a6.3 6.3 0 0 1-.282 2.431 5.16 5.16 0 0 1-1.351 2.186c-.869.832-1.886 1.27-3.088 1.278-.46.008-.928.037-1.389.03-.787-.023-1.58-.082-2.368-.097-.608-.015-1.225.023-1.833.03-.067 0-.164-.067-.186-.126-.037-.112.045-.186.156-.201.06-.008.126-.015.178-.037.17-.06.35-.12.512-.201.26-.126.364-.357.357-.64-.008-.475 0-.95 0-1.426v-5.219c0-.765-.371-1.233-1.121-1.39-.119-.022-.178-.081-.17-.2.007-.134.103-.171.222-.171h1.781c.238 0 .468.007.706.037.623.082.928.401.994 1.026.023.06.03.119.037.223m-.022 3.449h.037v3.62c0 .305.141.468.446.52.512.09 1.017.104 1.529 0 .69-.134 1.299-.416 1.722-.996.609-.84.765-1.806.742-2.817a5 5 0 0 0-.14-1.063c-.194-.885-.535-1.695-1.203-2.342-.631-.61-1.44-.743-2.198-.304-.586.341-.935.854-.935 1.56z" fill="#05060B"/></svg>