<svg xmlns="http://www.w3.org/2000/svg" width="100%" height="100%" viewBox="0 0 252 53" fill-rule="evenodd" stroke-linejoin="round" stroke-miterlimit="2" xmlns:v="https://vecta.io/nano"><clipPath id="A"><path d="M0 0h251.197v52.112H0z"/></clipPath><g clip-path="url(#A)" fill-rule="nonzero"><path d="M0 21.81L21.835 0l-.007 10.911 21.822.013-21.831 16.354-.009 16.366L0 21.81zm76.377.043l-21.834 21.81.006-10.911-21.822-.013 21.831-16.354.01-16.366 21.809 21.834zm42.402 19.185l.022-38.19 9.231.005-.01 16.149h.504L141.159 2.86l10.872.007-13.548 17.036 13.769 21.154-11.04-.006-9.501-15.017-3.695 4.66-.006 10.349-9.231-.005zm-32.723-.019l.003-5.258 18.569-25.425-18.535-.011.004-7.496 30.209.017-.003 5.259L97.734 33.53l18.536.01-.004 7.497-30.21-.018zm154.232.685c-2.561-.001-4.792-.643-6.693-1.924-1.889-1.282-3.355-3.036-4.398-5.261s-1.564-4.763-1.562-7.61c.002-2.871.531-5.426 1.589-7.663 1.07-2.237 2.551-3.989 4.441-5.256 1.891-1.279 4.085-1.918 6.584-1.917 1.914.001 3.648.375 5.202 1.122 1.554.734 2.833 1.773 3.84 3.116 1.018 1.331 1.658 2.885 1.918 4.663l-3.357-.002c-.347-1.616-1.185-2.996-2.515-4.141-1.317-1.157-2.995-1.736-5.034-1.737-1.827-.001-3.443.495-4.849 1.489-1.405.981-2.506 2.354-3.303 4.119-.784 1.753-1.177 3.785-1.178 6.097-.001 2.325.383 4.383 1.153 6.173.769 1.779 1.85 3.172 3.242 4.179 1.404 1.008 3.045 1.513 4.922 1.514 1.268 0 2.424-.235 3.469-.707 1.057-.484 1.94-1.167 2.649-2.05.722-.882 1.207-1.932 1.456-3.15l3.357.002c-.25 1.727-.866 3.269-1.849 4.623-.971 1.342-2.233 2.398-3.787 3.168-1.542.77-3.308 1.154-5.297 1.153zm-34.593-18.518l-.01 17.902-3.319-.002.016-28.643 3.226.002-.002 4.494h.298c.672-1.466 1.717-2.641 3.135-3.522 1.43-.895 3.196-1.341 5.297-1.34 1.926.001 3.617.406 5.071 1.215 1.467.796 2.603 1.972 3.41 3.526.82 1.555 1.229 3.463 1.228 5.726l-.011 18.554-3.319-.002.011-18.349c.001-2.35-.657-4.208-1.974-5.577-1.304-1.368-3.057-2.053-5.257-2.054-1.505-.001-2.841.322-4.01.967s-2.096 1.578-2.78 2.796c-.672 1.205-1.009 2.641-1.01 4.307zm-26.013 28.628a8.7 8.7 0 0 1-1.846-.188c-.572-.124-1.026-.261-1.361-.411l.897-2.927c1.131.349 2.138.474 3.02.375.883-.087 1.667-.484 2.351-1.192.684-.696 1.293-1.765 1.829-3.207l1.046-2.908-10.519-28.929 3.598.002 8.49 24.266h.261l8.517-24.256 3.599.002-12.14 33.168c-.51 1.379-1.139 2.529-1.885 3.449-.747.931-1.611 1.621-2.593 2.068-.97.459-2.058.688-3.264.688zm-6.296-33.103l-3.04.856c-.298-.858-.72-1.635-1.267-2.332s-1.261-1.25-2.143-1.661c-.87-.411-1.952-.616-3.244-.617-1.94-.001-3.531.458-4.775 1.377s-1.866 2.106-1.867 3.561c-.001 1.231.421 2.232 1.267 3.003.857.759 2.174 1.362 3.952 1.811l4.325 1.065c2.399.586 4.195 1.513 5.388 2.782 1.205 1.269 1.807 2.86 1.806 4.775-.001 1.616-.449 3.051-1.345 4.307s-2.146 2.242-3.75 2.962c-1.592.708-3.438 1.061-5.539 1.06-2.797-.001-5.103-.631-6.917-1.887-1.815-1.269-2.976-3.097-3.484-5.485l3.189-.781c.409 1.703 1.211 2.99 2.403 3.861 1.206.871 2.79 1.307 4.755 1.308 2.2.002 3.96-.488 5.278-1.47 1.318-.994 1.978-2.236 1.979-3.728 0-1.156-.384-2.126-1.155-2.91-.77-.796-1.938-1.381-3.504-1.755l-4.68-1.121c-2.486-.598-4.326-1.544-5.518-2.838s-1.789-2.897-1.788-4.812c.001-1.579.431-2.965 1.289-4.158.859-1.205 2.04-2.149 3.545-2.832s3.22-1.024 5.147-1.023c2.623.002 4.718.6 6.284 1.794 1.578 1.182 2.714 2.811 3.409 4.888z"/></g></svg>